<?xml version="1.0" standalone="no"?>
<!DOCTYPE svg PUBLIC "-//W3C//DTD SVG 20010904//EN"
 "http://www.w3.org/TR/2001/REC-SVG-20010904/DTD/svg10.dtd">
<svg version="1.0" xmlns="http://www.w3.org/2000/svg"
 width="400.000000pt" height="400.000000pt" viewBox="0 0 400.000000 400.000000"
 preserveAspectRatio="xMidYMid meet">
<metadata>
Created by potrace 1.14, written by Peter Selinger 2001-2017
</metadata>
<g transform="translate(0.000000,400.000000) scale(0.100000,-0.100000)"
fill="#000000" stroke="none">
<path d="M2452 2603 c-11 -16 -31 -51 -45 -80 -21 -40 -24 -53 -14 -61 7 -6
17 -8 23 -4 19 13 85 144 80 158 -8 21 -23 17 -44 -13z"/>
<path d="M690 2570 c-22 -3 -36 -11 -38 -22 -4 -21 -3 -21 100 -18 42 1 82 -1
88 -5 6 -4 -3 -17 -20 -32 -53 -44 -69 -89 -66 -179 3 -88 17 -134 42 -134 14
0 15 7 8 53 -24 156 10 236 109 256 87 18 0 79 -119 84 -38 2 -85 0 -104 -3z"/>
<path d="M1120 2561 c-63 -23 -124 -86 -145 -152 -30 -90 -18 -229 19 -229 13
0 14 15 11 89 -5 110 15 169 76 218 64 51 160 57 175 10 5 -17 -2 -28 -36 -57
-94 -77 -120 -107 -120 -136 0 -56 76 -114 153 -117 30 -2 42 2 45 14 2 11
-13 20 -57 32 -61 17 -105 55 -95 82 3 7 37 36 74 65 72 53 91 89 75 139 -16
51 -96 70 -175 42z"/>
<path d="M1442 2555 c-29 -24 -64 -117 -78 -210 -3 -22 -8 -43 -11 -47 -2 -5
-6 -27 -9 -50 -3 -23 -6 -46 -7 -52 -1 -6 7 -11 18 -11 17 0 23 17 48 130 30
136 58 215 77 215 10 0 27 -34 35 -70 18 -79 18 -79 -8 -85 -14 -4 -35 -17
-47 -30 -32 -35 -23 -99 20 -137 34 -31 57 -35 86 -14 16 12 19 26 19 85 -1
66 1 71 21 71 12 0 25 7 28 16 8 22 2 27 -31 29 -25 1 -28 7 -44 70 -13 49
-26 77 -44 93 -33 28 -37 28 -73 -3z m100 -255 c4 -47 -7 -84 -23 -74 -6 3
-18 23 -26 42 -14 34 -14 37 7 54 32 26 37 23 42 -22z"/>
<path d="M1741 2566 c-13 -15 -15 -23 -26 -111 -9 -66 -10 -73 -20 -160 -4
-33 -11 -69 -14 -80 -12 -33 -7 -50 14 -50 18 0 22 14 41 130 12 72 19 135 16
140 -3 7 -2 7 5 0 5 -5 17 -45 26 -88 22 -103 41 -145 71 -158 56 -26 105 22
120 116 4 22 8 47 11 55 2 8 6 31 9 50 3 19 7 44 10 55 17 86 17 102 1 108
-23 9 -32 -18 -59 -176 -27 -152 -45 -190 -76 -162 -9 9 -27 59 -39 113 -50
214 -64 249 -90 218z"/>
<path d="M2204 2569 c-75 -21 -145 -135 -145 -233 0 -116 83 -186 167 -141 39
21 55 56 52 110 -3 37 -1 40 27 45 21 4 30 11 30 25 0 16 -6 20 -29 18 -15 -1
-39 -9 -52 -18 -22 -14 -25 -23 -23 -67 2 -43 -1 -54 -21 -70 -27 -22 -57 -16
-83 16 -40 48 -33 130 16 202 39 57 75 79 110 70 23 -5 26 -10 21 -35 -8 -36
19 -49 40 -20 22 31 2 77 -40 95 -18 8 -35 14 -36 13 -2 0 -17 -5 -34 -10z"/>
<path d="M2661 2566 c-43 -12 -98 -64 -107 -101 -14 -57 16 -83 185 -158 23
-10 41 -24 41 -31 0 -24 -71 -45 -166 -50 -59 -3 -75 -11 -67 -33 5 -13 19
-15 88 -11 129 8 203 51 187 110 -7 28 -45 53 -118 79 -36 13 -77 34 -91 47
-23 21 -24 25 -10 45 23 36 78 68 111 65 41 -4 56 -31 32 -57 -18 -20 -16 -51
3 -51 21 0 51 45 51 77 0 33 -27 72 -52 74 -7 1 -22 2 -33 3 -11 2 -35 -2 -54
-8z"/>
<path d="M3000 2564 c-76 -32 -129 -118 -138 -219 -7 -94 31 -152 107 -162 49
-7 130 29 176 77 l29 30 20 -38 c25 -44 76 -72 131 -72 54 0 137 40 165 79 44
63 35 162 -20 201 -39 28 -115 28 -130 0 -12 -22 -13 -21 50 -25 57 -4 59 -4
69 -24 22 -40 21 -78 -2 -112 -57 -87 -197 -100 -225 -21 -7 20 -6 40 5 71 14
42 11 76 -6 69 -4 -2 -32 -31 -60 -66 -109 -131 -220 -165 -256 -79 -31 74 12
192 87 241 21 14 38 17 72 12 34 -5 45 -4 49 8 13 33 -68 53 -123 30z"/>
<path d="M3596 2541 c-4 -6 -8 -79 -9 -163 -1 -153 7 -198 36 -198 9 0 12 45
11 182 -1 156 -4 183 -17 186 -8 2 -18 -1 -21 -7z"/>
<path d="M702 2244 c-12 -8 -31 -33 -43 -55 -16 -32 -23 -38 -34 -29 -17 14
-94 18 -95 5 -1 -5 16 -13 36 -18 73 -15 72 -27 -6 -63 -100 -47 -167 -106
-198 -174 -34 -74 -40 -209 -13 -279 l18 -48 -48 -12 c-137 -35 -198 -142
-113 -197 29 -20 120 -23 164 -6 25 9 26 8 22 -22 -3 -27 2 -38 35 -67 22 -18
47 -38 57 -44 15 -9 15 -15 5 -45 -7 -19 -17 -38 -22 -42 -10 -6 -44 -3 -79 8
-12 3 -18 0 -18 -10 0 -8 9 -17 19 -21 73 -23 103 -11 127 50 17 46 18 47 53
39 67 -13 136 -3 253 36 65 21 143 44 175 49 54 11 84 24 114 53 8 7 34 29 58
47 43 34 43 34 75 18 41 -22 89 -31 121 -23 43 11 84 126 46 126 -6 0 -16 -18
-22 -41 -7 -22 -20 -44 -29 -49 -18 -10 -75 -3 -103 12 -17 9 -17 11 4 45 24
39 29 65 18 106 -7 24 -4 29 19 38 68 26 111 102 90 160 -18 53 -98 77 -176
54 -25 -8 -47 -13 -47 -12 -1 1 -16 32 -33 69 -73 158 -211 241 -389 231 -40
-2 -73 0 -73 4 0 15 43 78 62 91 10 7 16 18 13 23 -8 13 -17 11 -43 -7z m181
-158 c109 -32 195 -118 243 -242 15 -39 15 -47 2 -74 -8 -16 -13 -43 -10 -60
5 -35 45 -78 81 -86 46 -10 48 -12 54 -39 9 -52 -13 -93 -78 -140 -22 -16 -57
-44 -77 -63 -29 -28 -53 -39 -115 -52 -43 -10 -125 -35 -182 -55 -94 -34 -112
-37 -180 -33 -88 5 -161 34 -186 72 -17 25 -16 28 15 99 42 96 39 138 -9 152
-101 30 -104 293 -4 397 102 105 311 163 446 124z m451 -280 c71 -46 -1 -156
-103 -156 -64 0 -101 64 -71 121 26 48 124 68 174 35z m-896 -265 c19 -2 14
-50 -8 -87 -47 -75 -187 -99 -226 -38 -19 28 -5 55 46 87 61 39 102 47 188 38z"/>
<path d="M940 1942 c-36 -29 -8 -82 35 -66 25 10 29 44 8 66 -19 19 -20 19
-43 0z"/>
<path d="M721 1832 c-33 -16 -61 -57 -61 -90 0 -58 89 -89 148 -52 45 28 57
64 35 103 -25 43 -79 60 -122 39z m86 -48 l27 -27 -32 -28 c-70 -63 -148 -7
-87 61 25 28 61 25 92 -6z"/>
<path d="M466 1788 c-31 -17 -13 -68 25 -68 23 0 42 26 34 48 -7 23 -36 33
-59 20z"/>
<path d="M1500 1739 c-16 -4 -19 -7 -7 -8 13 -1 17 -10 17 -42 0 -22 4 -38 9
-35 5 3 7 21 5 40 -2 29 1 35 19 38 21 3 21 4 2 9 -11 3 -31 2 -45 -2z"/>
<path d="M1678 1743 c-22 -5 -35 -50 -21 -72 13 -21 57 -26 72 -7 27 33 -9 89
-51 79z m41 -27 c15 -18 -2 -56 -23 -56 -21 0 -38 27 -31 50 7 23 37 27 54 6z"/>
<path d="M2505 1739 c-16 -3 -22 -7 -12 -8 13 -1 17 -10 17 -41 0 -22 4 -40 8
-40 4 0 7 18 5 39 -1 30 2 41 15 43 9 2 13 6 7 9 -5 3 -23 2 -40 -2z"/>
<path d="M3032 1742 c-7 -2 -12 -22 -12 -48 l0 -44 38 2 37 1 -33 4 c-40 5
-38 25 4 34 29 7 26 10 -10 13 -34 2 -29 24 6 28 30 3 31 4 8 9 -14 3 -31 4
-38 1z"/>
<path d="M1855 1710 c8 -16 15 -36 15 -45 0 -9 5 -13 10 -10 6 4 8 11 5 16 -4
5 1 19 9 31 22 32 19 48 -3 19 l-19 -24 -6 21 c-4 12 -12 22 -17 22 -5 0 -3
-13 6 -30z"/>
<path d="M2016 1724 c-4 -11 3 -19 24 -27 42 -16 40 -42 -2 -33 -24 5 -29 3
-21 -5 16 -16 67 -7 71 12 2 10 -8 21 -28 29 -36 15 -40 34 -5 28 14 -3 25 -1
25 3 0 16 -58 10 -64 -7z"/>
<path d="M2317 1733 c-15 -14 -5 -32 24 -42 17 -6 28 -15 24 -21 -8 -13 -42
-13 -48 0 -3 6 -4 5 -3 -2 2 -7 16 -13 32 -13 42 0 45 32 5 46 -36 13 -31 34
6 24 16 -4 22 -2 18 5 -7 11 -48 14 -58 3z"/>
<path d="M2651 1718 c-13 -36 2 -63 38 -66 25 -3 33 1 40 21 16 43 3 67 -35
67 -27 0 -37 -5 -43 -22z m64 -23 c0 -25 -4 -30 -25 -30 -16 0 -26 6 -28 18
-6 30 6 49 30 45 18 -2 23 -9 23 -33z"/>
<path d="M2838 1728 c-2 -7 -1 -29 3 -48 4 -20 7 -26 8 -13 1 25 28 25 43 0 5
-9 14 -17 20 -17 6 0 3 9 -7 20 -10 11 -13 20 -7 20 7 0 12 11 12 25 0 22 -4
25 -34 25 -19 0 -36 -6 -38 -12z m60 -10 c-7 -20 -48 -23 -48 -4 0 11 9 16 26
16 16 0 24 -5 22 -12z"/>
</g>
</svg>
