<svg xmlns="http://www.w3.org/2000/svg" xmlns:xlink="http://www.w3.org/1999/xlink" version="1.1" width="256" height="256" viewBox="0 0 256 256" xml:space="preserve">

<defs>
</defs>
<g style="stroke: none; stroke-width: 0; stroke-dasharray: none; stroke-linecap: butt; stroke-linejoin: miter; stroke-miterlimit: 10; fill: none; fill-rule: nonzero; opacity: 1;" transform="translate(1.4065934065934016 1.4065934065934016) scale(2.81 2.81)" >
	<path d="M 87.578 35.489 L 45.273 77.794 c -1.896 1.896 -4.969 1.896 -6.865 0 L 12.206 51.592 c -1.896 -1.896 -1.896 -4.969 0 -6.865 L 54.511 2.422 c 1.896 -1.896 4.969 -1.896 6.865 0 l 26.202 26.202 C 89.474 30.519 89.474 33.593 87.578 35.489 z" style="stroke: none; stroke-width: 1; stroke-dasharray: none; stroke-linecap: butt; stroke-linejoin: miter; stroke-miterlimit: 10; fill: rgb(239,237,239); fill-rule: nonzero; opacity: 1;" transform=" matrix(1 0 0 1 0 0) " stroke-linecap="round" />
	<path d="M 51.218 24.341 c -4.174 -0.254 -8.161 3.183 -8.208 8.885 c -5.702 0.047 -9.139 4.034 -8.885 8.208 c 0.271 4.44 5.542 7.96 11.8 8.729 c 3.172 0.39 9.508 -0.147 12.909 -1.113 c 0.965 -3.401 1.502 -9.737 1.113 -12.909 C 59.178 29.883 55.658 24.611 51.218 24.341 z" style="stroke: none; stroke-width: 1; stroke-dasharray: none; stroke-linecap: butt; stroke-linejoin: miter; stroke-miterlimit: 10; fill: rgb(254,147,211); fill-rule: nonzero; opacity: 1;" transform=" matrix(1 0 0 1 0 0) " stroke-linecap="round" />
	<path d="M 41.84 80.213 c -1.5 0 -2.999 -0.57 -4.14 -1.712 L 11.499 52.3 c -1.106 -1.106 -1.715 -2.576 -1.715 -4.14 c 0 -1.564 0.609 -3.034 1.715 -4.14 L 53.805 1.715 C 54.91 0.609 56.38 0 57.944 0 c 1.563 0 3.033 0.609 4.14 1.715 l 26.201 26.202 c 2.282 2.282 2.282 5.997 0 8.279 l 0 0 L 45.979 78.501 C 44.838 79.643 43.339 80.213 41.84 80.213 z M 57.944 2 c -1.029 0 -1.997 0.401 -2.726 1.129 L 12.913 45.435 c -0.728 0.729 -1.129 1.696 -1.129 2.726 s 0.401 1.997 1.129 2.726 l 26.202 26.201 c 1.503 1.502 3.948 1.502 5.451 0 l 42.306 -42.305 c 1.503 -1.503 1.503 -3.948 0 -5.451 L 60.67 3.129 C 59.941 2.401 58.974 2 57.944 2 z M 87.578 35.489 h 0.01 H 87.578 z" style="stroke: none; stroke-width: 1; stroke-dasharray: none; stroke-linecap: butt; stroke-linejoin: miter; stroke-miterlimit: 10; fill: rgb(63,63,63); fill-rule: nonzero; opacity: 1;" transform=" matrix(1 0 0 1 0 0) " stroke-linecap="round" />
	<path d="M 48.467 51.29 c -1.001 0 -1.912 -0.043 -2.664 -0.136 c -7.057 -0.866 -12.388 -4.929 -12.676 -9.66 c -0.139 -2.271 0.664 -4.461 2.258 -6.17 c 1.648 -1.767 3.991 -2.834 6.668 -3.056 c 0.222 -2.677 1.289 -5.019 3.056 -6.667 c 1.708 -1.594 3.901 -2.396 6.17 -2.258 l 0 0 c 4.731 0.288 8.794 5.619 9.66 12.676 c 0.409 3.328 -0.146 9.793 -1.143 13.305 c -0.095 0.333 -0.355 0.594 -0.688 0.688 C 56.389 50.783 51.9 51.29 48.467 51.29 z M 50.78 25.328 c -1.582 0 -3.1 0.608 -4.308 1.736 c -1.567 1.463 -2.442 3.654 -2.463 6.17 c -0.004 0.546 -0.446 0.987 -0.992 0.992 c -2.517 0.021 -4.708 0.896 -6.171 2.463 c -1.216 1.303 -1.828 2.967 -1.724 4.684 c 0.226 3.708 4.922 7.06 10.924 7.797 c 2.9 0.356 8.611 -0.105 11.97 -0.938 c 0.832 -3.359 1.294 -9.069 0.938 -11.97 c -0.737 -6.002 -4.089 -10.698 -7.797 -10.924 l 0 0 C 51.031 25.332 50.905 25.328 50.78 25.328 z" style="stroke: none; stroke-width: 1; stroke-dasharray: none; stroke-linecap: butt; stroke-linejoin: miter; stroke-miterlimit: 10; fill: rgb(63,63,63); fill-rule: nonzero; opacity: 1;" transform=" matrix(1 0 0 1 0 0) " stroke-linecap="round" />
	<path d="M 40.865 45.375 c -0.155 0 -0.313 -0.036 -0.46 -0.113 c -1.854 -0.963 -2.973 -2.43 -3.07 -4.023 c -0.105 -1.735 0.821 -3.358 2.418 -4.236 c 0.484 -0.266 1.092 -0.089 1.358 0.394 c 0.267 0.484 0.09 1.092 -0.394 1.358 c -0.913 0.502 -1.444 1.408 -1.386 2.363 c 0.053 0.875 0.781 1.738 1.996 2.37 c 0.49 0.254 0.681 0.858 0.426 1.348 C 41.575 45.179 41.226 45.375 40.865 45.375 z" style="stroke: none; stroke-width: 1; stroke-dasharray: none; stroke-linecap: butt; stroke-linejoin: miter; stroke-miterlimit: 10; fill: rgb(63,63,63); fill-rule: nonzero; opacity: 1;" transform=" matrix(1 0 0 1 0 0) " stroke-linecap="round" />
	<path d="M 55.782 27.597 c -0.026 0 -0.053 -0.001 -0.079 -0.003 c -0.551 -0.043 -0.962 -0.524 -0.919 -1.075 l 2.005 -25.591 c 0.043 -0.55 0.534 -0.958 1.075 -0.919 c 0.551 0.043 0.962 0.524 0.919 1.075 l -2.005 25.591 C 56.737 27.199 56.299 27.597 55.782 27.597 z" style="stroke: none; stroke-width: 1; stroke-dasharray: none; stroke-linecap: butt; stroke-linejoin: miter; stroke-miterlimit: 10; fill: rgb(63,63,63); fill-rule: nonzero; opacity: 1;" transform=" matrix(1 0 0 1 0 0) " stroke-linecap="round" />
	<path d="M 11.023 48.983 c -0.517 0 -0.955 -0.397 -0.996 -0.922 c -0.043 -0.551 0.368 -1.032 0.919 -1.075 L 36.307 45 c 0.55 -0.05 1.032 0.368 1.075 0.919 s -0.368 1.032 -0.919 1.075 l -25.36 1.986 C 11.076 48.982 11.049 48.983 11.023 48.983 z" style="stroke: none; stroke-width: 1; stroke-dasharray: none; stroke-linecap: butt; stroke-linejoin: miter; stroke-miterlimit: 10; fill: rgb(63,63,63); fill-rule: nonzero; opacity: 1;" transform=" matrix(1 0 0 1 0 0) " stroke-linecap="round" />
	<path d="M 60.067 39.115 c -0.469 0 -0.887 -0.331 -0.98 -0.808 c -0.106 -0.542 0.247 -1.067 0.789 -1.174 l 28.913 -5.662 c 0.549 -0.11 1.067 0.247 1.174 0.789 s -0.247 1.067 -0.789 1.174 l -28.913 5.662 C 60.195 39.109 60.131 39.115 60.067 39.115 z" style="stroke: none; stroke-width: 1; stroke-dasharray: none; stroke-linecap: butt; stroke-linejoin: miter; stroke-miterlimit: 10; fill: rgb(63,63,63); fill-rule: nonzero; opacity: 1;" transform=" matrix(1 0 0 1 0 0) " stroke-linecap="round" />
	<path d="M 42.239 80.197 c -0.063 0 -0.128 -0.006 -0.193 -0.019 c -0.542 -0.106 -0.895 -0.632 -0.789 -1.174 l 5.662 -28.913 c 0.106 -0.541 0.624 -0.896 1.174 -0.789 c 0.542 0.106 0.896 0.632 0.789 1.174 L 43.219 79.39 C 43.126 79.866 42.708 80.197 42.239 80.197 z" style="stroke: none; stroke-width: 1; stroke-dasharray: none; stroke-linecap: butt; stroke-linejoin: miter; stroke-miterlimit: 10; fill: rgb(63,63,63); fill-rule: nonzero; opacity: 1;" transform=" matrix(1 0 0 1 0 0) " stroke-linecap="round" />
	<path d="M 1 90 c -0.256 0 -0.512 -0.098 -0.707 -0.293 c -0.391 -0.391 -0.391 -1.023 0 -1.414 L 19.016 69.57 c 0.391 -0.391 1.023 -0.391 1.414 0 s 0.391 1.023 0 1.414 L 1.707 89.707 C 1.512 89.902 1.256 90 1 90 z" style="stroke: none; stroke-width: 1; stroke-dasharray: none; stroke-linecap: butt; stroke-linejoin: miter; stroke-miterlimit: 10; fill: rgb(63,63,63); fill-rule: nonzero; opacity: 1;" transform=" matrix(1 0 0 1 0 0) " stroke-linecap="round" />
	<path d="M 1.358 75.758 c -0.256 0 -0.512 -0.098 -0.707 -0.293 c -0.391 -0.391 -0.391 -1.023 0 -1.414 l 11.423 -11.422 c 0.391 -0.391 1.023 -0.391 1.414 0 s 0.391 1.023 0 1.414 L 2.065 75.465 C 1.87 75.66 1.614 75.758 1.358 75.758 z" style="stroke: none; stroke-width: 1; stroke-dasharray: none; stroke-linecap: butt; stroke-linejoin: miter; stroke-miterlimit: 10; fill: rgb(63,63,63); fill-rule: nonzero; opacity: 1;" transform=" matrix(1 0 0 1 0 0) " stroke-linecap="round" />
	<path d="M 15.242 89.642 c -0.256 0 -0.512 -0.098 -0.707 -0.293 c -0.391 -0.391 -0.391 -1.023 0 -1.414 l 11.422 -11.422 c 0.391 -0.391 1.023 -0.391 1.414 0 s 0.391 1.023 0 1.414 L 15.949 89.349 C 15.754 89.544 15.498 89.642 15.242 89.642 z" style="stroke: none; stroke-width: 1; stroke-dasharray: none; stroke-linecap: butt; stroke-linejoin: miter; stroke-miterlimit: 10; fill: rgb(63,63,63); fill-rule: nonzero; opacity: 1;" transform=" matrix(1 0 0 1 0 0) " stroke-linecap="round" />
</g>
</svg>