<svg xmlns="http://www.w3.org/2000/svg" xmlns:xlink="http://www.w3.org/1999/xlink" version="1.1" width="256" height="256" viewBox="0 0 256 256" xml:space="preserve">

<defs>
</defs>
<g style="stroke: none; stroke-width: 0; stroke-dasharray: none; stroke-linecap: butt; stroke-linejoin: miter; stroke-miterlimit: 10; fill: none; fill-rule: nonzero; opacity: 1;" transform="translate(1.4065934065934016 1.4065934065934016) scale(2.81 2.81)" >
	<rect x="53.16" y="1.71" rx="0" ry="0" width="32.36" height="32.36" style="stroke: none; stroke-width: 1; stroke-dasharray: none; stroke-linecap: butt; stroke-linejoin: miter; stroke-miterlimit: 10; fill: rgb(255,255,255); fill-rule: nonzero; opacity: 1;" transform=" matrix(1 0 0 1 0 0) "/>
	<path d="M 88.403 0 H 48.256 c -0.882 0 -1.597 0.715 -1.597 1.597 v 34.327 c 0 0.882 0.715 1.597 1.597 1.597 h 12.549 l 6.292 10.898 c 0.548 0.949 1.918 0.949 2.466 0 l 6.292 -10.898 h 12.549 c 0.882 0 1.597 -0.715 1.597 -1.597 V 1.597 C 90 0.715 89.285 0 88.403 0 z M 54.135 22.017 l 3.896 -7.078 h -4.16 v -1.646 h 6.416 v 1.734 l -3.715 6.99 H 54.135 z M 61.968 22.041 h -2.267 l 4.756 -8.918 h 2.267 L 61.968 22.041 z M 75.047 22.017 h -6.41 v -1.424 c 0.543 -0.43 1.03 -0.836 1.462 -1.219 s 0.812 -0.746 1.14 -1.09 c 0.426 -0.449 0.734 -0.844 0.926 -1.184 s 0.287 -0.689 0.287 -1.049 c 0 -0.406 -0.121 -0.718 -0.363 -0.935 s -0.58 -0.325 -1.014 -0.325 c -0.223 0 -0.433 0.027 -0.63 0.082 S 70.047 15 69.844 15.085 c -0.199 0.09 -0.369 0.182 -0.51 0.275 s -0.246 0.164 -0.316 0.211 h -0.17 v -1.904 c 0.246 -0.117 0.631 -0.237 1.154 -0.36 s 1.027 -0.185 1.512 -0.185 c 1.035 0 1.819 0.23 2.353 0.691 s 0.8 1.109 0.8 1.945 c 0 0.516 -0.121 1.021 -0.363 1.515 s -0.645 1.024 -1.207 1.591 c -0.352 0.348 -0.693 0.657 -1.025 0.929 s -0.572 0.464 -0.721 0.577 h 3.697 V 22.017 z M 82.788 19.984 H 81.61 v 2.057 h -2.115 v -2.057 h -3.838 v -1.629 l 3.768 -5.063 h 2.186 v 5.121 h 1.178 V 19.984 z" style="stroke: none; stroke-width: 1; stroke-dasharray: none; stroke-linecap: butt; stroke-linejoin: miter; stroke-miterlimit: 10; fill: rgb(38,185,153); fill-rule: nonzero; opacity: 1;" transform=" matrix(1 0 0 1 0 0) " stroke-linecap="round" />
	<polygon points="79.5,18.41 79.5,15.44 77.29,18.41 " style="stroke: none; stroke-width: 1; stroke-dasharray: none; stroke-linecap: butt; stroke-linejoin: miter; stroke-miterlimit: 10; fill: rgb(38,185,153); fill-rule: nonzero; opacity: 1;" transform="  matrix(1 0 0 1 0 0) "/>
	<path d="M 49.665 62.087 c 0.974 0.974 2.471 1.194 3.684 0.543 l 6.198 -3.328 c 11.764 2.454 21.211 7.851 28.004 16.618 c 0.016 -0.038 0.032 -0.074 0.049 -0.112 c -1.393 3.212 -2.871 6.667 -3.621 8.581 c -0.247 0.631 -0.615 1.208 -1.127 1.652 c -12.674 10.986 -37.89 -2.4 -57.191 -21.701 C 6.358 45.039 -7.028 19.823 3.958 7.149 c 0.444 -0.512 1.022 -0.88 1.652 -1.127 c 1.914 -0.75 5.369 -2.228 8.581 -3.621 c -0.038 0.016 -0.074 0.032 -0.112 0.049 c 8.767 6.793 14.164 16.24 16.618 28.004 l -3.328 6.198 c -0.651 1.213 -0.431 2.71 0.543 3.684 l 10.876 10.876 L 49.665 62.087 z" style="stroke: none; stroke-width: 1; stroke-dasharray: none; stroke-linecap: butt; stroke-linejoin: miter; stroke-miterlimit: 10; fill: rgb(105,188,69); fill-rule: nonzero; opacity: 1;" transform=" matrix(1 0 0 1 0 0) " stroke-linecap="round" />
	<path d="M 59.547 59.302 l 6.835 -3.669 c 0.964 -0.518 2.129 -0.493 3.07 0.066 l 19.017 11.285 c 1.357 0.805 1.903 2.489 1.268 3.933 c -0.599 1.363 -1.38 3.146 -2.185 5.003 L 59.547 59.302 z" style="stroke: none; stroke-width: 1; stroke-dasharray: none; stroke-linecap: butt; stroke-linejoin: miter; stroke-miterlimit: 10; fill: rgb(71,160,71); fill-rule: nonzero; opacity: 1;" transform=" matrix(1 0 0 1 0 0) " stroke-linecap="round" />
	<path d="M 30.698 30.453 l 3.669 -6.835 c 0.518 -0.964 0.493 -2.129 -0.066 -3.07 L 23.017 1.531 c -0.805 -1.357 -2.489 -1.903 -3.933 -1.268 c -1.363 0.599 -3.146 1.38 -5.003 2.185 L 30.698 30.453 z" style="stroke: none; stroke-width: 1; stroke-dasharray: none; stroke-linecap: butt; stroke-linejoin: miter; stroke-miterlimit: 10; fill: rgb(71,160,71); fill-rule: nonzero; opacity: 1;" transform=" matrix(1 0 0 1 0 0) " stroke-linecap="round" />
</g>
</svg>